<svg xmlns="http://www.w3.org/2000/svg" width="64" height="64" viewBox="0 0 64 64">
  <defs>
    <linearGradient id="g" x1="0" y1="0" x2="1" y2="1">
      <stop offset="0" stop-color="#d07a63" />
      <stop offset="1" stop-color="#c96f58" />
    </linearGradient>
  </defs>
  <rect x="6" y="6" width="52" height="52" rx="18" fill="url(#g)" />
  <path
    d="M32 16c8 0 14.5 6.5 14.5 14.5 0 6.3-3.2 11.7-8 15.2-1.7 1.2-2.7 3.5-2.7 5.6V54a2 2 0 0 1-2 2h-3.6a2 2 0 0 1-2-2v-2.7c0-2.1-1-4.4-2.7-5.6-4.8-3.5-8-8.9-8-15.2C17.5 22.5 24 16 32 16Z"
    fill="#fff"
    opacity="0.95"
  />
  <path
    d="M22.5 26.5c3-3 6.8-4.9 9.5-4.9s6.5 1.9 9.5 4.9"
    fill="none"
    stroke="#fff"
    stroke-width="3.5"
    stroke-linecap="round"
    opacity="0.5"
  />
</svg>

